<?xml version='1.0' encoding='UTF-8'?>
<svg width="145mm" height="145mm" version="1.1" xmlns="http://www.w3.org/2000/svg"><rect x="10mm" y="10mm" width="5mm" height="5mm" /><rect x="15mm" y="10mm" width="5mm" height="5mm" /><rect x="20mm" y="10mm" width="5mm" height="5mm" /><rect x="25mm" y="10mm" width="5mm" height="5mm" /><rect x="30mm" y="10mm" width="5mm" height="5mm" /><rect x="35mm" y="10mm" width="5mm" height="5mm" /><rect x="40mm" y="10mm" width="5mm" height="5mm" /><rect x="55mm" y="10mm" width="5mm" height="5mm" /><rect x="60mm" y="10mm" width="5mm" height="5mm" /><rect x="65mm" y="10mm" width="5mm" height="5mm" /><rect x="75mm" y="10mm" width="5mm" height="5mm" /><rect x="100mm" y="10mm" width="5mm" height="5mm" /><rect x="105mm" y="10mm" width="5mm" height="5mm" /><rect x="110mm" y="10mm" width="5mm" height="5mm" /><rect x="115mm" y="10mm" width="5mm" height="5mm" /><rect x="120mm" y="10mm" width="5mm" height="5mm" /><rect x="125mm" y="10mm" width="5mm" height="5mm" /><rect x="130mm" y="10mm" width="5mm" height="5mm" /><rect x="10mm" y="15mm" width="5mm" height="5mm" /><rect x="40mm" y="15mm" width="5mm" height="5mm" /><rect x="65mm" y="15mm" width="5mm" height="5mm" /><rect x="70mm" y="15mm" width="5mm" height="5mm" /><rect x="75mm" y="15mm" width="5mm" height="5mm" /><rect x="100mm" y="15mm" width="5mm" height="5mm" /><rect x="130mm" y="15mm" width="5mm" height="5mm" /><rect x="10mm" y="20mm" width="5mm" height="5mm" /><rect x="20mm" y="20mm" width="5mm" height="5mm" /><rect x="25mm" y="20mm" width="5mm" height="5mm" /><rect x="30mm" y="20mm" width="5mm" height="5mm" /><rect x="40mm" y="20mm" width="5mm" height="5mm" /><rect x="55mm" y="20mm" width="5mm" height="5mm" /><rect x="60mm" y="20mm" width="5mm" height="5mm" /><rect x="65mm" y="20mm" width="5mm" height="5mm" /><rect x="100mm" y="20mm" width="5mm" height="5mm" /><rect x="110mm" y="20mm" width="5mm" height="5mm" /><rect x="115mm" y="20mm" width="5mm" height="5mm" /><rect x="120mm" y="20mm" width="5mm" height="5mm" /><rect x="130mm" y="20mm" width="5mm" height="5mm" /><rect x="10mm" y="25mm" width="5mm" height="5mm" /><rect x="20mm" y="25mm" width="5mm" height="5mm" /><rect x="25mm" y="25mm" width="5mm" height="5mm" /><rect x="30mm" y="25mm" width="5mm" height="5mm" /><rect x="40mm" y="25mm" width="5mm" height="5mm" /><rect x="50mm" y="25mm" width="5mm" height="5mm" /><rect x="60mm" y="25mm" width="5mm" height="5mm" /><rect x="65mm" y="25mm" width="5mm" height="5mm" /><rect x="75mm" y="25mm" width="5mm" height="5mm" /><rect x="85mm" y="25mm" width="5mm" height="5mm" /><rect x="100mm" y="25mm" width="5mm" height="5mm" /><rect x="110mm" y="25mm" width="5mm" height="5mm" /><rect x="115mm" y="25mm" width="5mm" height="5mm" /><rect x="120mm" y="25mm" width="5mm" height="5mm" /><rect x="130mm" y="25mm" width="5mm" height="5mm" /><rect x="10mm" y="30mm" width="5mm" height="5mm" /><rect x="20mm" y="30mm" width="5mm" height="5mm" /><rect x="25mm" y="30mm" width="5mm" height="5mm" /><rect x="30mm" y="30mm" width="5mm" height="5mm" /><rect x="40mm" y="30mm" width="5mm" height="5mm" /><rect x="50mm" y="30mm" width="5mm" height="5mm" /><rect x="60mm" y="30mm" width="5mm" height="5mm" /><rect x="70mm" y="30mm" width="5mm" height="5mm" /><rect x="75mm" y="30mm" width="5mm" height="5mm" /><rect x="80mm" y="30mm" width="5mm" height="5mm" /><rect x="90mm" y="30mm" width="5mm" height="5mm" /><rect x="100mm" y="30mm" width="5mm" height="5mm" /><rect x="110mm" y="30mm" width="5mm" height="5mm" /><rect x="115mm" y="30mm" width="5mm" height="5mm" /><rect x="120mm" y="30mm" width="5mm" height="5mm" /><rect x="130mm" y="30mm" width="5mm" height="5mm" /><rect x="10mm" y="35mm" width="5mm" height="5mm" /><rect x="40mm" y="35mm" width="5mm" height="5mm" /><rect x="55mm" y="35mm" width="5mm" height="5mm" /><rect x="60mm" y="35mm" width="5mm" height="5mm" /><rect x="75mm" y="35mm" width="5mm" height="5mm" /><rect x="100mm" y="35mm" width="5mm" height="5mm" /><rect x="130mm" y="35mm" width="5mm" height="5mm" /><rect x="10mm" y="40mm" width="5mm" height="5mm" /><rect x="15mm" y="40mm" width="5mm" height="5mm" /><rect x="20mm" y="40mm" width="5mm" height="5mm" /><rect x="25mm" y="40mm" width="5mm" height="5mm" /><rect x="30mm" y="40mm" width="5mm" height="5mm" /><rect x="35mm" y="40mm" width="5mm" height="5mm" /><rect x="40mm" y="40mm" width="5mm" height="5mm" /><rect x="50mm" y="40mm" width="5mm" height="5mm" /><rect x="60mm" y="40mm" width="5mm" height="5mm" /><rect x="70mm" y="40mm" width="5mm" height="5mm" /><rect x="80mm" y="40mm" width="5mm" height="5mm" /><rect x="90mm" y="40mm" width="5mm" height="5mm" /><rect x="100mm" y="40mm" width="5mm" height="5mm" /><rect x="105mm" y="40mm" width="5mm" height="5mm" /><rect x="110mm" y="40mm" width="5mm" height="5mm" /><rect x="115mm" y="40mm" width="5mm" height="5mm" /><rect x="120mm" y="40mm" width="5mm" height="5mm" /><rect x="125mm" y="40mm" width="5mm" height="5mm" /><rect x="130mm" y="40mm" width="5mm" height="5mm" /><rect x="55mm" y="45mm" width="5mm" height="5mm" /><rect x="70mm" y="45mm" width="5mm" height="5mm" /><rect x="85mm" y="45mm" width="5mm" height="5mm" /><rect x="10mm" y="50mm" width="5mm" height="5mm" /><rect x="15mm" y="50mm" width="5mm" height="5mm" /><rect x="35mm" y="50mm" width="5mm" height="5mm" /><rect x="40mm" y="50mm" width="5mm" height="5mm" /><rect x="45mm" y="50mm" width="5mm" height="5mm" /><rect x="55mm" y="50mm" width="5mm" height="5mm" /><rect x="60mm" y="50mm" width="5mm" height="5mm" /><rect x="70mm" y="50mm" width="5mm" height="5mm" /><rect x="75mm" y="50mm" width="5mm" height="5mm" /><rect x="80mm" y="50mm" width="5mm" height="5mm" /><rect x="85mm" y="50mm" width="5mm" height="5mm" /><rect x="90mm" y="50mm" width="5mm" height="5mm" /><rect x="110mm" y="50mm" width="5mm" height="5mm" /><rect x="115mm" y="50mm" width="5mm" height="5mm" /><rect x="25mm" y="55mm" width="5mm" height="5mm" /><rect x="30mm" y="55mm" width="5mm" height="5mm" /><rect x="35mm" y="55mm" width="5mm" height="5mm" /><rect x="60mm" y="55mm" width="5mm" height="5mm" /><rect x="85mm" y="55mm" width="5mm" height="5mm" /><rect x="105mm" y="55mm" width="5mm" height="5mm" /><rect x="110mm" y="55mm" width="5mm" height="5mm" /><rect x="120mm" y="55mm" width="5mm" height="5mm" /><rect x="125mm" y="55mm" width="5mm" height="5mm" /><rect x="20mm" y="60mm" width="5mm" height="5mm" /><rect x="25mm" y="60mm" width="5mm" height="5mm" /><rect x="30mm" y="60mm" width="5mm" height="5mm" /><rect x="40mm" y="60mm" width="5mm" height="5mm" /><rect x="45mm" y="60mm" width="5mm" height="5mm" /><rect x="50mm" y="60mm" width="5mm" height="5mm" /><rect x="55mm" y="60mm" width="5mm" height="5mm" /><rect x="65mm" y="60mm" width="5mm" height="5mm" /><rect x="70mm" y="60mm" width="5mm" height="5mm" /><rect x="75mm" y="60mm" width="5mm" height="5mm" /><rect x="85mm" y="60mm" width="5mm" height="5mm" /><rect x="90mm" y="60mm" width="5mm" height="5mm" /><rect x="95mm" y="60mm" width="5mm" height="5mm" /><rect x="100mm" y="60mm" width="5mm" height="5mm" /><rect x="110mm" y="60mm" width="5mm" height="5mm" /><rect x="115mm" y="60mm" width="5mm" height="5mm" /><rect x="120mm" y="60mm" width="5mm" height="5mm" /><rect x="125mm" y="60mm" width="5mm" height="5mm" /><rect x="130mm" y="60mm" width="5mm" height="5mm" /><rect x="30mm" y="65mm" width="5mm" height="5mm" /><rect x="35mm" y="65mm" width="5mm" height="5mm" /><rect x="45mm" y="65mm" width="5mm" height="5mm" /><rect x="50mm" y="65mm" width="5mm" height="5mm" /><rect x="60mm" y="65mm" width="5mm" height="5mm" /><rect x="65mm" y="65mm" width="5mm" height="5mm" /><rect x="90mm" y="65mm" width="5mm" height="5mm" /><rect x="95mm" y="65mm" width="5mm" height="5mm" /><rect x="100mm" y="65mm" width="5mm" height="5mm" /><rect x="115mm" y="65mm" width="5mm" height="5mm" /><rect x="125mm" y="65mm" width="5mm" height="5mm" /><rect x="130mm" y="65mm" width="5mm" height="5mm" /><rect x="10mm" y="70mm" width="5mm" height="5mm" /><rect x="15mm" y="70mm" width="5mm" height="5mm" /><rect x="30mm" y="70mm" width="5mm" height="5mm" /><rect x="40mm" y="70mm" width="5mm" height="5mm" /><rect x="45mm" y="70mm" width="5mm" height="5mm" /><rect x="50mm" y="70mm" width="5mm" height="5mm" /><rect x="55mm" y="70mm" width="5mm" height="5mm" /><rect x="60mm" y="70mm" width="5mm" height="5mm" /><rect x="70mm" y="70mm" width="5mm" height="5mm" /><rect x="85mm" y="70mm" width="5mm" height="5mm" /><rect x="90mm" y="70mm" width="5mm" height="5mm" /><rect x="100mm" y="70mm" width="5mm" height="5mm" /><rect x="130mm" y="70mm" width="5mm" height="5mm" /><rect x="10mm" y="75mm" width="5mm" height="5mm" /><rect x="15mm" y="75mm" width="5mm" height="5mm" /><rect x="25mm" y="75mm" width="5mm" height="5mm" /><rect x="35mm" y="75mm" width="5mm" height="5mm" /><rect x="45mm" y="75mm" width="5mm" height="5mm" /><rect x="50mm" y="75mm" width="5mm" height="5mm" /><rect x="55mm" y="75mm" width="5mm" height="5mm" /><rect x="60mm" y="75mm" width="5mm" height="5mm" /><rect x="70mm" y="75mm" width="5mm" height="5mm" /><rect x="75mm" y="75mm" width="5mm" height="5mm" /><rect x="80mm" y="75mm" width="5mm" height="5mm" /><rect x="85mm" y="75mm" width="5mm" height="5mm" /><rect x="90mm" y="75mm" width="5mm" height="5mm" /><rect x="95mm" y="75mm" width="5mm" height="5mm" /><rect x="105mm" y="75mm" width="5mm" height="5mm" /><rect x="120mm" y="75mm" width="5mm" height="5mm" /><rect x="10mm" y="80mm" width="5mm" height="5mm" /><rect x="30mm" y="80mm" width="5mm" height="5mm" /><rect x="40mm" y="80mm" width="5mm" height="5mm" /><rect x="45mm" y="80mm" width="5mm" height="5mm" /><rect x="60mm" y="80mm" width="5mm" height="5mm" /><rect x="70mm" y="80mm" width="5mm" height="5mm" /><rect x="75mm" y="80mm" width="5mm" height="5mm" /><rect x="85mm" y="80mm" width="5mm" height="5mm" /><rect x="105mm" y="80mm" width="5mm" height="5mm" /><rect x="115mm" y="80mm" width="5mm" height="5mm" /><rect x="120mm" y="80mm" width="5mm" height="5mm" /><rect x="125mm" y="80mm" width="5mm" height="5mm" /><rect x="130mm" y="80mm" width="5mm" height="5mm" /><rect x="10mm" y="85mm" width="5mm" height="5mm" /><rect x="20mm" y="85mm" width="5mm" height="5mm" /><rect x="25mm" y="85mm" width="5mm" height="5mm" /><rect x="35mm" y="85mm" width="5mm" height="5mm" /><rect x="45mm" y="85mm" width="5mm" height="5mm" /><rect x="50mm" y="85mm" width="5mm" height="5mm" /><rect x="55mm" y="85mm" width="5mm" height="5mm" /><rect x="60mm" y="85mm" width="5mm" height="5mm" /><rect x="65mm" y="85mm" width="5mm" height="5mm" /><rect x="70mm" y="85mm" width="5mm" height="5mm" /><rect x="80mm" y="85mm" width="5mm" height="5mm" /><rect x="85mm" y="85mm" width="5mm" height="5mm" /><rect x="90mm" y="85mm" width="5mm" height="5mm" /><rect x="105mm" y="85mm" width="5mm" height="5mm" /><rect x="110mm" y="85mm" width="5mm" height="5mm" /><rect x="115mm" y="85mm" width="5mm" height="5mm" /><rect x="120mm" y="85mm" width="5mm" height="5mm" /><rect x="10mm" y="90mm" width="5mm" height="5mm" /><rect x="20mm" y="90mm" width="5mm" height="5mm" /><rect x="30mm" y="90mm" width="5mm" height="5mm" /><rect x="40mm" y="90mm" width="5mm" height="5mm" /><rect x="45mm" y="90mm" width="5mm" height="5mm" /><rect x="60mm" y="90mm" width="5mm" height="5mm" /><rect x="65mm" y="90mm" width="5mm" height="5mm" /><rect x="75mm" y="90mm" width="5mm" height="5mm" /><rect x="80mm" y="90mm" width="5mm" height="5mm" /><rect x="90mm" y="90mm" width="5mm" height="5mm" /><rect x="95mm" y="90mm" width="5mm" height="5mm" /><rect x="100mm" y="90mm" width="5mm" height="5mm" /><rect x="105mm" y="90mm" width="5mm" height="5mm" /><rect x="110mm" y="90mm" width="5mm" height="5mm" /><rect x="115mm" y="90mm" width="5mm" height="5mm" /><rect x="120mm" y="90mm" width="5mm" height="5mm" /><rect x="50mm" y="95mm" width="5mm" height="5mm" /><rect x="55mm" y="95mm" width="5mm" height="5mm" /><rect x="65mm" y="95mm" width="5mm" height="5mm" /><rect x="80mm" y="95mm" width="5mm" height="5mm" /><rect x="85mm" y="95mm" width="5mm" height="5mm" /><rect x="90mm" y="95mm" width="5mm" height="5mm" /><rect x="110mm" y="95mm" width="5mm" height="5mm" /><rect x="115mm" y="95mm" width="5mm" height="5mm" /><rect x="125mm" y="95mm" width="5mm" height="5mm" /><rect x="10mm" y="100mm" width="5mm" height="5mm" /><rect x="15mm" y="100mm" width="5mm" height="5mm" /><rect x="20mm" y="100mm" width="5mm" height="5mm" /><rect x="25mm" y="100mm" width="5mm" height="5mm" /><rect x="30mm" y="100mm" width="5mm" height="5mm" /><rect x="35mm" y="100mm" width="5mm" height="5mm" /><rect x="40mm" y="100mm" width="5mm" height="5mm" /><rect x="50mm" y="100mm" width="5mm" height="5mm" /><rect x="55mm" y="100mm" width="5mm" height="5mm" /><rect x="65mm" y="100mm" width="5mm" height="5mm" /><rect x="70mm" y="100mm" width="5mm" height="5mm" /><rect x="80mm" y="100mm" width="5mm" height="5mm" /><rect x="90mm" y="100mm" width="5mm" height="5mm" /><rect x="100mm" y="100mm" width="5mm" height="5mm" /><rect x="110mm" y="100mm" width="5mm" height="5mm" /><rect x="120mm" y="100mm" width="5mm" height="5mm" /><rect x="130mm" y="100mm" width="5mm" height="5mm" /><rect x="10mm" y="105mm" width="5mm" height="5mm" /><rect x="40mm" y="105mm" width="5mm" height="5mm" /><rect x="50mm" y="105mm" width="5mm" height="5mm" /><rect x="60mm" y="105mm" width="5mm" height="5mm" /><rect x="65mm" y="105mm" width="5mm" height="5mm" /><rect x="70mm" y="105mm" width="5mm" height="5mm" /><rect x="85mm" y="105mm" width="5mm" height="5mm" /><rect x="90mm" y="105mm" width="5mm" height="5mm" /><rect x="110mm" y="105mm" width="5mm" height="5mm" /><rect x="115mm" y="105mm" width="5mm" height="5mm" /><rect x="10mm" y="110mm" width="5mm" height="5mm" /><rect x="20mm" y="110mm" width="5mm" height="5mm" /><rect x="25mm" y="110mm" width="5mm" height="5mm" /><rect x="30mm" y="110mm" width="5mm" height="5mm" /><rect x="40mm" y="110mm" width="5mm" height="5mm" /><rect x="75mm" y="110mm" width="5mm" height="5mm" /><rect x="80mm" y="110mm" width="5mm" height="5mm" /><rect x="85mm" y="110mm" width="5mm" height="5mm" /><rect x="90mm" y="110mm" width="5mm" height="5mm" /><rect x="95mm" y="110mm" width="5mm" height="5mm" /><rect x="100mm" y="110mm" width="5mm" height="5mm" /><rect x="105mm" y="110mm" width="5mm" height="5mm" /><rect x="110mm" y="110mm" width="5mm" height="5mm" /><rect x="120mm" y="110mm" width="5mm" height="5mm" /><rect x="10mm" y="115mm" width="5mm" height="5mm" /><rect x="20mm" y="115mm" width="5mm" height="5mm" /><rect x="25mm" y="115mm" width="5mm" height="5mm" /><rect x="30mm" y="115mm" width="5mm" height="5mm" /><rect x="40mm" y="115mm" width="5mm" height="5mm" /><rect x="60mm" y="115mm" width="5mm" height="5mm" /><rect x="65mm" y="115mm" width="5mm" height="5mm" /><rect x="80mm" y="115mm" width="5mm" height="5mm" /><rect x="95mm" y="115mm" width="5mm" height="5mm" /><rect x="100mm" y="115mm" width="5mm" height="5mm" /><rect x="120mm" y="115mm" width="5mm" height="5mm" /><rect x="125mm" y="115mm" width="5mm" height="5mm" /><rect x="130mm" y="115mm" width="5mm" height="5mm" /><rect x="10mm" y="120mm" width="5mm" height="5mm" /><rect x="20mm" y="120mm" width="5mm" height="5mm" /><rect x="25mm" y="120mm" width="5mm" height="5mm" /><rect x="30mm" y="120mm" width="5mm" height="5mm" /><rect x="40mm" y="120mm" width="5mm" height="5mm" /><rect x="60mm" y="120mm" width="5mm" height="5mm" /><rect x="70mm" y="120mm" width="5mm" height="5mm" /><rect x="80mm" y="120mm" width="5mm" height="5mm" /><rect x="85mm" y="120mm" width="5mm" height="5mm" /><rect x="105mm" y="120mm" width="5mm" height="5mm" /><rect x="115mm" y="120mm" width="5mm" height="5mm" /><rect x="120mm" y="120mm" width="5mm" height="5mm" /><rect x="130mm" y="120mm" width="5mm" height="5mm" /><rect x="10mm" y="125mm" width="5mm" height="5mm" /><rect x="40mm" y="125mm" width="5mm" height="5mm" /><rect x="50mm" y="125mm" width="5mm" height="5mm" /><rect x="60mm" y="125mm" width="5mm" height="5mm" /><rect x="65mm" y="125mm" width="5mm" height="5mm" /><rect x="70mm" y="125mm" width="5mm" height="5mm" /><rect x="80mm" y="125mm" width="5mm" height="5mm" /><rect x="85mm" y="125mm" width="5mm" height="5mm" /><rect x="90mm" y="125mm" width="5mm" height="5mm" /><rect x="95mm" y="125mm" width="5mm" height="5mm" /><rect x="100mm" y="125mm" width="5mm" height="5mm" /><rect x="110mm" y="125mm" width="5mm" height="5mm" /><rect x="115mm" y="125mm" width="5mm" height="5mm" /><rect x="130mm" y="125mm" width="5mm" height="5mm" /><rect x="10mm" y="130mm" width="5mm" height="5mm" /><rect x="15mm" y="130mm" width="5mm" height="5mm" /><rect x="20mm" y="130mm" width="5mm" height="5mm" /><rect x="25mm" y="130mm" width="5mm" height="5mm" /><rect x="30mm" y="130mm" width="5mm" height="5mm" /><rect x="35mm" y="130mm" width="5mm" height="5mm" /><rect x="40mm" y="130mm" width="5mm" height="5mm" /><rect x="50mm" y="130mm" width="5mm" height="5mm" /><rect x="90mm" y="130mm" width="5mm" height="5mm" /><rect x="100mm" y="130mm" width="5mm" height="5mm" /><rect x="105mm" y="130mm" width="5mm" height="5mm" /><rect x="130mm" y="130mm" width="5mm" height="5mm" /></svg>